<svg aria-hidden="true" style="position: absolute; width: 0; height: 0; overflow: hidden;" version="1.1" xmlns="http://www.w3.org/2000/svg" xmlns:xlink="http://www.w3.org/1999/xlink">
    <defs>
        <symbol id="icon-facebook" viewBox="0 0 32 32">
            <path d="M0 16c0-8.837 7.163-16 16-16s16 7.163 16 16-7.163 16-16 16-16-7.163-16-16zM17.668 25.408v-8.705h2.403l0.318-3h-2.721l0.004-1.501c0-0.783 0.074-1.202 1.198-1.202h1.502v-3h-2.402c-2.887 0-3.903 1.455-3.903 3.902v1.801h-1.8v3h1.8v8.705h3.602z"></path>
        </symbol>
        <symbol id="icon-instagram" viewBox="0 0 32 32">
            <path d="M0 16c0-8.837 7.163-16 16-16s16 7.163 16 16-7.163 16-16 16-16-7.163-16-16zM16 7.467c-2.317 0-2.608 0.010-3.518 0.051-0.908 0.042-1.528 0.186-2.070 0.397-0.592 0.226-1.097 0.561-1.512 0.983l-0.001 0.001c-0.423 0.416-0.758 0.92-0.975 1.482l-0.010 0.029c-0.211 0.543-0.355 1.163-0.396 2.071-0.040 0.91-0.051 1.201-0.051 3.52 0 2.317 0.010 2.607 0.051 3.517 0.042 0.908 0.186 1.528 0.397 2.070 0.226 0.592 0.561 1.097 0.983 1.512l0.001 0.001c0.474 0.474 0.95 0.767 1.511 0.985 0.543 0.21 1.163 0.354 2.072 0.396 0.91 0.041 1.2 0.052 3.518 0.052 2.317 0 2.607-0.010 3.518-0.052 0.908-0.042 1.529-0.185 2.072-0.396 0.591-0.226 1.095-0.561 1.509-0.984l0.001-0.001c0.475-0.475 0.767-0.95 0.985-1.512 0.21-0.543 0.354-1.163 0.397-2.071 0.040-0.91 0.051-1.2 0.051-3.518s-0.010-2.608-0.051-3.518c-0.043-0.909-0.187-1.53-0.397-2.072-0.227-0.591-0.562-1.095-0.984-1.509l-0.001-0.001c-0.415-0.423-0.919-0.758-1.481-0.974l-0.029-0.010c-0.545-0.211-1.165-0.355-2.074-0.397-0.91-0.041-1.2-0.051-3.518-0.051h0.003z"></path>
            <path d="M15.235 9.005h0.766c2.278 0 2.548 0.008 3.448 0.049 0.832 0.038 1.283 0.177 1.584 0.294 0.398 0.154 0.682 0.34 0.98 0.638 0.3 0.299 0.484 0.583 0.64 0.981 0.116 0.3 0.255 0.752 0.293 1.584 0.041 0.9 0.050 1.17 0.050 3.447s-0.009 2.548-0.050 3.448c-0.038 0.832-0.177 1.283-0.294 1.584-0.154 0.398-0.34 0.681-0.638 0.98-0.268 0.276-0.596 0.494-0.962 0.632l-0.018 0.006c-0.301 0.117-0.753 0.256-1.585 0.294-0.9 0.041-1.17 0.050-3.448 0.050s-2.55-0.009-3.449-0.050c-0.832-0.038-1.283-0.177-1.584-0.294-0.385-0.144-0.713-0.362-0.981-0.637l-0.001-0.001c-0.276-0.269-0.494-0.596-0.632-0.963l-0.006-0.018c-0.117-0.3-0.256-0.752-0.294-1.584-0.040-0.9-0.049-1.17-0.049-3.449s0.008-2.547 0.050-3.447c0.037-0.832 0.176-1.283 0.293-1.584 0.155-0.398 0.34-0.683 0.638-0.981 0.3-0.3 0.584-0.484 0.982-0.639 0.3-0.117 0.752-0.256 1.584-0.294 0.788-0.036 1.093-0.046 2.683-0.048v0.002zM20.555 10.422c-0.010-0-0.021-0.001-0.032-0.001-0.566 0-1.024 0.458-1.024 1.024s0.458 1.024 1.024 1.024c0.011 0 0.022-0 0.034-0.001l-0.002 0c0.552-0.018 0.992-0.469 0.992-1.024s-0.44-1.006-0.99-1.023l-0.002-0zM16.001 11.618c-0.020-0-0.043-0.001-0.066-0.001-2.421 0-4.383 1.962-4.383 4.383s1.962 4.383 4.383 4.383c0.023 0 0.046-0 0.070-0.001l-0.003 0c2.392-0.037 4.317-1.985 4.317-4.383s-1.925-4.345-4.313-4.382l-0.003-0z"></path>
            <path d="M16 13.155c1.571 0 2.845 1.274 2.845 2.845s-1.274 2.845-2.845 2.845v0c-1.571 0-2.845-1.274-2.845-2.845s1.274-2.845 2.845-2.845v0z"></path>
        </symbol>
        <symbol id="icon-arrow_left" viewBox="0 0 38 32">
            <path d="M0.625 17.218c-0.386-0.386-0.625-0.919-0.625-1.508s0.239-1.122 0.625-1.508l13.577-13.577c0.39-0.415 0.942-0.673 1.555-0.673 1.178 0 2.133 0.955 2.133 2.133 0 0.613-0.259 1.166-0.673 1.555l-0.001 0.001-12.066 12.068 12.068 12.068c0.402 0.388 0.651 0.932 0.651 1.534 0 1.178-0.955 2.133-2.133 2.133-0.602 0-1.146-0.249-1.534-0.651l-0.001-0.001-13.577-13.577zM37.892 17.843h-35.759v-4.267h35.759v4.267z"></path>
        </symbol>
        <symbol id="icon-arrow-right" viewBox="0 0 38 32">
            <path d="M37.269 14.202c0.386 0.386 0.625 0.919 0.625 1.508s-0.239 1.122-0.625 1.508l-13.579 13.577c-0.388 0.402-0.932 0.651-1.534 0.651-1.178 0-2.133-0.955-2.133-2.133 0-0.602 0.249-1.146 0.651-1.534l0.001-0.001 12.068-12.068-12.070-12.068c-0.386-0.386-0.624-0.919-0.624-1.508 0-1.178 0.955-2.134 2.134-2.134 0.59 0 1.123 0.239 1.509 0.625l13.577 13.577zM35.759 17.843h-35.759v-4.267h35.759v4.267z"></path>
        </symbol>
    </defs>
</svg>
